<svg width="24" height="24" viewBox="0 0 24 24" fill="none" xmlns="http://www.w3.org/2000/svg">
<g clip-path="url(#clip0_65_556)">
<path d="M14.3604 3.18005L15.801 5.41025L18.4554 5.54045L18.5898 8.19485L20.82 9.63545L19.6104 12.0001L20.82 14.3605L18.5898 15.8011L18.4596 18.4555L15.8052 18.5899L14.3646 20.8201L12 19.6105L9.6396 20.8201L8.199 18.5899L5.5446 18.4597L5.4102 15.8053L3.18 14.3647L4.3896 12.0001L3.18 9.63965L5.4102 8.19905L5.5404 5.54465L8.1948 5.41025L9.6354 3.18005L12 4.38965L14.3604 3.18005Z" fill="#42A5F5"/>
<path d="M10.9038 15.045L8.178 12.3192L9.0684 11.4288L10.9206 13.2768L14.9358 9.38342L15.8136 10.2864L10.9038 15.045Z" fill="white"/>
</g>
<defs>
<clipPath id="clip0_65_556">
<rect width="24" height="24" fill="white"/>
</clipPath>
</defs>
</svg>
