<svg width="25" height="24" viewBox="0 0 25 24" fill="none" xmlns="http://www.w3.org/2000/svg">
<g clip-path="url(#clip0_65_396)">
<path d="M14.4375 3.18005L15.8781 5.41025L18.5325 5.54045L18.6669 8.19485L20.8971 9.63545L19.6875 12.0001L20.8971 14.3605L18.6669 15.8011L18.5367 18.4555L15.8823 18.5899L14.4417 20.8201L12.0771 19.6105L9.71674 20.8201L8.27614 18.5899L5.62174 18.4597L5.48734 15.8053L3.25714 14.3647L4.46674 12.0001L3.25714 9.63965L5.48734 8.19905L5.61754 5.54465L8.27194 5.41025L9.71254 3.18005L12.0771 4.38965L14.4375 3.18005Z" fill="#42A5F5"/>
<path d="M10.9809 15.045L8.25514 12.3192L9.14554 11.4288L10.9977 13.2768L15.0129 9.38342L15.8907 10.2864L10.9809 15.045Z" fill="white"/>
</g>
<defs>
<clipPath id="clip0_65_396">
<rect width="24" height="24" fill="white" transform="translate(0.0771484)"/>
</clipPath>
</defs>
</svg>
