<svg width="25" height="24" viewBox="0 0 25 24" fill="none" xmlns="http://www.w3.org/2000/svg">
<g clip-path="url(#clip0_65_512)">
<path d="M14.4377 3.18005L15.8783 5.41025L18.5327 5.54045L18.6671 8.19485L20.8973 9.63545L19.6877 12.0001L20.8973 14.3605L18.6671 15.8011L18.5369 18.4555L15.8825 18.5899L14.4419 20.8201L12.0773 19.6105L9.71686 20.8201L8.27626 18.5899L5.62186 18.4597L5.48746 15.8053L3.25726 14.3647L4.46686 12.0001L3.25726 9.63965L5.48746 8.19905L5.61766 5.54465L8.27206 5.41025L9.71266 3.18005L12.0773 4.38965L14.4377 3.18005Z" fill="#42A5F5"/>
<path d="M10.981 15.045L8.25525 12.3192L9.14565 11.4288L10.9978 13.2768L15.013 9.38342L15.8908 10.2864L10.981 15.045Z" fill="white"/>
</g>
<defs>
<clipPath id="clip0_65_512">
<rect width="24" height="24" fill="white" transform="translate(0.0772705)"/>
</clipPath>
</defs>
</svg>
