<svg width="160" height="40" viewBox="0 0 160 40" fill="none" xmlns="http://www.w3.org/2000/svg">
<g clip-path="url(#clip0_65_10)">
<path d="M13.9718 6.34559C13.3745 5.15108 11.6823 5.15108 11.085 6.34559L2.92259 24.9268C5.34478 23.9314 8.92829 23.9977 8.92829 23.9977H9.16055L11.8482 17.3284C12.1468 16.6316 12.8104 16.6316 13.1091 17.3284L16.6262 26.0881H13.0759H9.72463C9.72463 26.0881 4.58163 25.9222 2.15943 28.0789C1.26356 28.9085 0.633106 29.8376 0.234937 30.7666C-0.561399 32.5584 0.765829 34.5492 2.72349 34.5492C3.81845 34.5492 4.78069 33.9188 5.21204 32.9234C5.64339 31.9611 6.60564 30.9325 8.89511 30.9325H18.5507L19.2807 32.7575C19.712 33.8524 20.7738 34.5492 21.9351 34.5492C23.9923 34.5492 25.3859 32.4256 24.5564 30.5675L13.9718 6.34559Z" fill="url(#paint0_linear_65_10)"/>
<path d="M71.8719 6.11328H60.1591C58.7655 6.14646 57.571 6.37873 56.6752 6.7769C55.7019 7.2193 54.9276 7.82762 54.3525 8.60183C53.7774 9.35393 53.3792 10.2387 53.158 11.2563C52.9589 12.2517 52.8594 13.3245 52.8594 14.4748V32.0938C52.8594 33.4542 53.9543 34.5491 55.3147 34.5491H56.1774C57.5379 34.5491 58.666 33.4542 58.666 32.0938V22.9691H66.6957C68.0561 22.9691 69.1511 21.8741 69.1511 20.4805V20.4473C69.1511 19.0537 68.0561 17.9588 66.6957 17.9588H58.666V14.6739C58.666 13.6343 58.854 12.7715 59.2301 12.0858C59.5951 11.4222 60.3914 11.0904 61.6191 11.0572H71.8719C73.2323 11.0572 74.3273 9.92907 74.3273 8.56866C74.3273 7.20825 73.2323 6.11328 71.8719 6.11328Z" fill="url(#paint1_linear_65_10)"/>
<path d="M47.086 6.11328H35.3732C33.9797 6.14646 32.8183 6.37873 31.8893 6.7769C30.916 7.2193 30.1418 7.82762 29.5666 8.60183C28.9915 9.35393 28.5933 10.2387 28.3721 11.2563C28.173 12.2517 28.0735 13.3245 28.0735 14.4748V32.0938C28.0735 33.4542 29.1685 34.5491 30.5289 34.5491H31.3916C32.752 34.5491 33.8801 33.4542 33.8801 32.0938V22.9691H41.9098C43.2703 22.9691 44.3652 21.8741 44.3652 20.4805V20.4473C44.3652 19.0537 43.2703 17.9588 41.9098 17.9588H33.8801V14.6739C33.8801 13.6343 34.0681 12.7715 34.4442 12.0858C34.8092 11.4222 35.6055 11.0904 36.8332 11.0572H47.086C48.4464 11.0572 49.5414 9.92907 49.5414 8.56866C49.5414 7.20825 48.4464 6.11328 47.086 6.11328Z" fill="url(#paint2_linear_65_10)"/>
<path d="M111.39 14.6739C111.39 13.6343 111.578 12.7715 111.954 12.0858C112.319 11.4222 113.149 11.0904 114.377 11.0572H124.596C125.957 11.0572 127.085 9.96224 127.085 8.60183V8.56866C127.085 7.20825 125.957 6.11328 124.596 6.11328H112.883C111.49 6.14646 110.329 6.37873 109.433 6.7769C108.437 7.2193 107.652 7.82762 107.077 8.60183C106.502 9.37605 106.115 10.2609 105.916 11.2563C105.694 12.2517 105.584 13.3245 105.584 14.4748V17.4943V25.4908V26.1876C105.584 27.3379 105.694 28.4107 105.916 29.4061C106.115 30.4237 106.502 31.3085 107.077 32.0606C107.652 32.8348 108.437 33.4431 109.433 33.8855C110.329 34.3169 111.49 34.5159 112.883 34.5491H124.596C125.957 34.5491 127.085 33.4542 127.085 32.0938C127.085 30.7334 125.957 29.6384 124.596 29.6384H114.377C113.149 29.6052 112.319 29.2734 111.954 28.6098C111.589 27.913 111.39 27.183 111.39 26.1544V25.4908V22.9691H119.453C120.814 22.9691 121.909 21.8741 121.909 20.5137V20.4142C121.909 19.0537 120.814 17.9588 119.453 17.9588H111.39V17.4943V14.6739Z" fill="url(#paint3_linear_65_10)"/>
<path d="M99.5781 5.54919C98.0518 5.54919 96.8573 6.77686 96.8573 8.26999V23.7654L95.696 22.4381L80.8974 5.51597C79.6034 4.35465 77.5793 5.28371 77.5793 7.0091V31.231C77.5793 32.7573 78.7739 33.9518 80.3002 33.9518C81.7933 33.9518 83.021 32.7573 83.021 31.231V16.0675L98.9477 34.0514C100.242 35.1795 102.299 34.2836 102.299 32.5582V31.3969V30.1693V8.26999C102.299 6.77686 101.071 5.54919 99.5781 5.54919Z" fill="url(#paint4_linear_65_10)"/>
<path d="M139.494 6.21308C137.703 6.9873 136.143 8.03802 134.816 9.36525C133.467 10.7146 132.405 12.2741 131.631 14.0437C130.856 15.8355 130.469 17.76 130.469 19.8172C130.469 21.8301 130.856 23.7325 131.631 25.5242C132.405 27.316 133.467 28.8755 134.816 30.2027C136.143 31.53 137.703 32.5917 139.494 33.388C141.308 34.1623 143.222 34.5494 145.235 34.5494C147.292 34.5494 149.205 34.1623 150.975 33.388C152.767 32.5917 154.337 31.53 155.687 30.2027C157.014 28.8755 158.065 27.316 158.839 25.5242C159.613 23.7325 160 21.8301 160 19.8172C160 17.76 159.613 15.8355 158.839 14.0437C158.739 13.8446 158.606 13.6124 158.507 13.3801C158.009 22.0403 153.331 25.7897 151.108 27.0837C150.444 27.5814 149.714 28.0128 148.918 28.3778C147.767 28.8645 146.54 29.1078 145.235 29.1078C143.974 29.1078 142.746 28.8645 141.552 28.3778C140.379 27.869 139.351 27.1943 138.466 26.3538C137.581 25.5132 136.873 24.5288 136.342 23.4007C135.811 22.2947 135.546 21.0891 135.546 19.784C135.546 18.501 135.811 17.2954 136.342 16.1673C136.873 15.0391 137.581 14.0548 138.466 13.2142C139.351 12.3736 140.379 11.71 141.552 11.2234C142.746 10.7367 143.974 10.4934 145.235 10.4934C146.54 10.4934 147.767 10.7367 148.918 11.2234C150.09 11.71 151.119 12.3736 152.004 13.2142C152.91 14.0548 153.629 15.0391 154.16 16.1673C154.658 17.1959 154.89 18.324 154.923 19.5185C155.952 17.2291 156.616 14.1764 156.35 10.1284C156.151 9.86293 155.919 9.63069 155.687 9.36525C154.337 8.03802 152.767 6.9873 150.975 6.21308C149.205 5.43887 147.292 5.05176 145.235 5.05176C143.222 5.05176 141.308 5.43887 139.494 6.21308Z" fill="url(#paint5_linear_65_10)"/>
</g>
<defs>
<linearGradient id="paint0_linear_65_10" x1="24.6228" y1="0.605326" x2="127.483" y2="103.466" gradientUnits="userSpaceOnUse">
<stop offset="0.25" stop-color="#FF6691"/>
<stop offset="0.75" stop-color="#00C2FF"/>
</linearGradient>
<linearGradient id="paint1_linear_65_10" x1="41.0802" y1="-35.263" x2="174.201" y2="97.858" gradientUnits="userSpaceOnUse">
<stop offset="0.25" stop-color="#FF6691"/>
<stop offset="0.75" stop-color="#00C2FF"/>
</linearGradient>
<linearGradient id="paint2_linear_65_10" x1="37.6959" y1="-13.8615" x2="170.817" y2="119.293" gradientUnits="userSpaceOnUse">
<stop offset="0.25" stop-color="#FF6691"/>
<stop offset="0.75" stop-color="#00C2FF"/>
</linearGradient>
<linearGradient id="paint3_linear_65_10" x1="73.6307" y1="-55.4369" x2="159.934" y2="30.8662" gradientUnits="userSpaceOnUse">
<stop offset="0.25" stop-color="#FF6691"/>
<stop offset="0.75" stop-color="#00C2FF"/>
</linearGradient>
<linearGradient id="paint4_linear_65_10" x1="65.5679" y1="-36.9885" x2="146.131" y2="43.541" gradientUnits="userSpaceOnUse">
<stop offset="0.25" stop-color="#FF6691"/>
<stop offset="0.75" stop-color="#00C2FF"/>
</linearGradient>
<linearGradient id="paint5_linear_65_10" x1="65.8996" y1="-89.0486" x2="174.964" y2="20.0495" gradientUnits="userSpaceOnUse">
<stop offset="0.25" stop-color="#FF6691"/>
<stop offset="0.75" stop-color="#00C2FF"/>
</linearGradient>
<clipPath id="clip0_65_10">
<rect width="160" height="40" fill="white"/>
</clipPath>
</defs>
</svg>
