<svg width="36" height="36" viewBox="0 0 36 36" fill="none" xmlns="http://www.w3.org/2000/svg">
<path d="M30.6999 12.5732L27.1943 5.87027C26.9898 5.47928 26.4609 5.15968 26.0202 5.15968H17.9515C17.9427 5.1593 17.9338 5.15692 17.925 5.15649C17.9178 5.15649 17.911 5.15933 17.9038 5.1597H9.97982C9.53871 5.1597 9.00857 5.4785 8.80125 5.86788L5.30485 12.4416C5.09711 12.831 5.13884 13.4426 5.39586 13.8015L17.4265 30.5725C17.5557 30.7525 17.7273 30.8435 17.8985 30.8435C18.0686 30.8435 18.239 30.7549 18.3689 30.5781L30.5973 13.9298C30.8575 13.5741 30.9045 12.9638 30.6999 12.5732ZM28.7863 12.3766H24.4891L26.2098 7.44901L28.7863 12.3766ZM19.5876 6.76369H24.7497L23.1485 11.3484L19.5876 6.76369ZM21.9158 12.3766H14.4558L17.9815 7.31147L21.9158 12.3766ZM13.0347 11.6111L11.4262 6.76369H16.4091L13.0347 11.6111ZM22.2294 13.9807L17.9177 26.3253L13.821 13.9807H22.2294ZM16.1184 25.9973L7.4983 13.9807H12.1308L16.1184 25.9973ZM23.9284 13.9807H28.5693L19.7227 26.025L23.9284 13.9807ZM9.89152 7.23327L11.5982 12.3766H7.15584L9.89152 7.23327Z" fill="white"/>
</svg>
