<svg width="36" height="36" viewBox="0 0 36 36" fill="none" xmlns="http://www.w3.org/2000/svg">
<path d="M26.5334 26.0438H9.46661C6.22113 26.0438 4.36058 24.1832 4.36058 20.9377V4.01086C4.36058 3.4373 4.83622 2.96167 5.40977 2.96167H30.5902C31.1638 2.96167 31.6394 3.4373 31.6394 4.01086V20.9377C31.6394 24.1832 29.7789 26.0438 26.5334 26.0438ZM6.45896 5.06004V20.9377C6.45896 23.0221 7.38223 23.9454 9.46661 23.9454H26.5194C28.6038 23.9454 29.527 23.0221 29.527 20.9377V5.06004H6.45896Z" fill="white"/>
<path d="M31.9891 5.06004H4.01086C3.4373 5.06004 2.96167 4.58441 2.96167 4.01086C2.96167 3.4373 3.4373 2.96167 4.01086 2.96167H31.9891C32.5627 2.96167 33.0383 3.4373 33.0383 4.01086C33.0383 4.58441 32.5627 5.06004 31.9891 5.06004Z" fill="white"/>
<path d="M12.4047 33.0383C12.013 33.0383 11.6493 32.8284 11.4674 32.4647C11.2016 31.9471 11.4115 31.3176 11.9431 31.0518L16.9512 28.5478V24.9945C16.9512 24.4209 17.4268 23.9453 18.0004 23.9453C18.5739 23.9453 19.0496 24.4209 19.0496 24.9945V29.1912C19.0496 29.5829 18.8257 29.9467 18.462 30.1285L12.8663 32.9264C12.7264 32.9963 12.5586 33.0383 12.4047 33.0383Z" fill="white"/>
<path d="M23.5956 33.0384C23.4417 33.0384 23.2739 32.9965 23.134 32.9265L17.5383 30.1287C17.0207 29.8629 16.8108 29.2334 17.0626 28.7158C17.3284 28.1982 17.958 27.9884 18.4756 28.2402L24.0712 31.038C24.5888 31.3038 24.7986 31.9333 24.5468 32.4509C24.351 32.8286 23.9733 33.0384 23.5956 33.0384Z" fill="white"/>
<path d="M11.7048 17.6503C11.411 17.6503 11.1033 17.5244 10.8934 17.2726C10.5157 16.8249 10.5856 16.1675 11.0333 15.7897L15.4399 12.1106C15.8456 11.7749 16.3632 11.635 16.8528 11.7189C17.3564 11.8028 17.7901 12.1106 18.0559 12.5582L19.5247 15.0063L23.6235 11.593C24.0712 11.2293 24.7287 11.2852 25.1064 11.7329C25.4841 12.1805 25.4142 12.838 24.9665 13.2157L20.5599 16.8949C20.1542 17.2306 19.6366 17.3705 19.147 17.2866C18.6434 17.2026 18.2097 16.8949 17.9439 16.4472L16.4751 13.9991L12.3763 17.4125C12.1804 17.5663 11.9426 17.6503 11.7048 17.6503Z" fill="white"/>
</svg>
