<svg width="36" height="36" viewBox="0 0 36 36" fill="none" xmlns="http://www.w3.org/2000/svg">
<path fill-rule="evenodd" clip-rule="evenodd" d="M18 4.8499C15.2938 4.8499 13.1 7.0437 13.1 9.7499C13.1 12.4561 15.2938 14.6499 18 14.6499C20.7061 14.6499 22.9 12.4561 22.9 9.7499C22.9 7.04371 20.7061 4.8499 18 4.8499ZM10.9 9.7499C10.9 5.82868 14.0788 2.6499 18 2.6499C21.9212 2.6499 25.1 5.82867 25.1 9.7499C25.1 13.6711 21.9212 16.8499 18 16.8499C14.0788 16.8499 10.9 13.6711 10.9 9.7499ZM19.7429 18.3999C20.626 17.4756 21.8708 16.8999 23.25 16.8999C24.3829 16.8999 25.4251 17.2889 26.25 17.939C27.0749 17.2889 28.1171 16.8999 29.25 16.8999C31.9286 16.8999 34.1 19.0713 34.1 21.7499C34.1 22.944 33.6671 24.0399 32.9508 24.8847L27.109 32.1871C26.9002 32.448 26.5842 32.5999 26.25 32.5999C25.9158 32.5999 25.5998 32.448 25.391 32.1871L19.5492 24.8847C18.8329 24.0399 18.4 22.944 18.4 21.7499C18.4 21.3537 18.4475 20.9685 18.5372 20.5999H14.25C10.3012 20.5999 7.1 23.801 7.1 27.7499V31.4999C7.1 32.1074 6.60751 32.5999 6 32.5999C5.39249 32.5999 4.9 32.1074 4.9 31.4999V27.7499C4.9 22.586 9.08614 18.3999 14.25 18.3999H19.7429ZM21.119 20.1744C21.1265 20.1648 21.1337 20.1551 21.1408 20.1454C21.6249 19.51 22.3896 19.0999 23.25 19.0999C24.1161 19.0999 24.8852 19.5143 25.3705 20.1603C25.5783 20.4369 25.9041 20.5996 26.25 20.5996C26.5959 20.5996 26.9217 20.4369 27.1295 20.1603C27.6148 19.5143 28.3839 19.0999 29.25 19.0999C30.7135 19.0999 31.9 20.2864 31.9 21.7499C31.9 22.4075 31.662 23.0066 31.266 23.4699C31.2583 23.4789 31.2507 23.4881 31.2433 23.4974L26.25 29.739L21.2567 23.4974C21.2493 23.4881 21.2417 23.4789 21.234 23.4699C20.8381 23.0066 20.6 22.4075 20.6 21.7499C20.6 21.1598 20.7929 20.6148 21.119 20.1744ZM12 25.8999C12.6075 25.8999 13.1 26.3924 13.1 26.9999V31.4999C13.1 32.1074 12.6075 32.5999 12 32.5999C11.3925 32.5999 10.9 32.1074 10.9 31.4999V26.9999C10.9 26.3924 11.3925 25.8999 12 25.8999Z" fill="white"/>
</svg>
