<svg width="71" height="52" viewBox="0 0 71 52" fill="none" xmlns="http://www.w3.org/2000/svg">
<rect width="71" height="48" rx="8" fill="white"/>
<g filter="url(#filter0_d_65_817)">
<rect x="8" y="6" width="36" height="36" rx="18" fill="white"/>
</g>
<path d="M21.0826 38.15V31.25L15.9326 35.05C17.3826 36.4 19.1326 37.45 21.0826 38.15Z" fill="#2A5F9E"/>
<path d="M31.0826 38.15C33.0326 37.45 34.7826 36.3999 36.2326 35.0499L31.0826 31.2V38.15Z" fill="#2A5F9E"/>
<path d="M11.9326 29C12.0826 29.5 12.2826 29.95 12.5326 30.45L14.4826 29H11.9326Z" fill="#2A5F9E"/>
<path d="M37.6826 29L39.6326 30.45C39.8326 30 40.0326 29.5 40.2326 29H37.6826Z" fill="#2A5F9E"/>
<path d="M21.8326 27H11.3826C11.5326 27.7 11.7326 28.35 11.9326 29H14.4826L12.5326 30.45C12.9326 31.3 13.3826 32.05 13.9326 32.8L19.0826 29H21.0826V30L15.2326 34.3L15.9326 35L21.0826 31.25V38.15C21.7326 38.4 22.3826 38.55 23.0826 38.7V27H21.8326Z" fill="white"/>
<path d="M40.7826 27H29.0826V38.7C29.7826 38.55 30.4326 38.35 31.0826 38.15V31.25L36.2326 35C36.9326 34.35 37.5326 33.65 38.1326 32.9L32.7826 29H36.1826L39.2326 31.25C39.3826 31 39.5326 30.7 39.6326 30.45L37.6826 29H40.2326C40.4326 28.35 40.6326 27.7 40.7826 27Z" fill="white"/>
<path d="M13.9326 32.8C14.3326 33.35 14.7326 33.85 15.1826 34.35L21.0826 30.05V29.05H19.0826L13.9326 32.8Z" fill="#ED4C5C"/>
<path d="M32.8326 29L38.1826 32.9C38.3826 32.65 38.5326 32.4 38.7326 32.15C38.7826 32.1 38.7826 32.05 38.8326 32.05C38.9826 31.8 39.1826 31.5 39.3326 31.25L36.1826 29H32.8326Z" fill="#ED4C5C"/>
<path d="M31.0826 9.8501V16.7501L36.2326 12.9501C34.7826 11.6001 33.0326 10.5501 31.0826 9.8501Z" fill="#2A5F9E"/>
<path d="M21.0826 9.8501C19.1326 10.5501 17.3826 11.6001 15.9326 12.9501L21.0826 16.8001V9.8501Z" fill="#2A5F9E"/>
<path d="M40.2326 19C40.0826 18.5 39.8826 18.05 39.6326 17.55L37.6826 19H40.2326Z" fill="#2A5F9E"/>
<path d="M14.4826 19L12.5326 17.55C12.3326 18.05 12.1326 18.5 11.9326 19H14.4826Z" fill="#2A5F9E"/>
<path d="M30.3326 21H40.7326C40.5826 20.3 40.3826 19.65 40.1826 19H37.6326L39.5826 17.55C39.1826 16.7 38.7326 15.95 38.1826 15.2L33.0826 19H31.0826V18L36.9326 13.7L36.2326 13L31.0826 16.75V9.85005C30.4326 9.60005 29.7826 9.45005 29.0826 9.30005V21H30.3326Z" fill="white"/>
<path d="M11.3826 21H23.0826V9.30005C22.3826 9.45005 21.7326 9.65005 21.0826 9.85005V16.75L15.9326 13C15.2326 13.65 14.6326 14.35 14.0326 15.1L19.3826 19H15.9826L12.9326 16.75C12.7826 17 12.6326 17.3 12.5326 17.55L14.4826 19H11.9326C11.7326 19.65 11.5326 20.3 11.3826 21Z" fill="white"/>
<path d="M38.2326 15.1999C37.8326 14.6499 37.4326 14.1499 36.9826 13.6499L31.0826 17.9499V18.9499H33.0826L38.2326 15.1999Z" fill="#ED4C5C"/>
<path d="M19.3326 19.0001L14.0326 15.1001C13.8326 15.3501 13.6826 15.6001 13.4826 15.8501C13.4326 15.9001 13.4326 15.9501 13.3826 15.9501C13.2326 16.2001 13.0326 16.5001 12.8826 16.7501L15.9326 19.0001H19.3326Z" fill="#ED4C5C"/>
<path d="M40.7826 21H29.0826V9.3C28.1326 9.1 27.1326 9 26.0826 9C25.0326 9 24.0326 9.1 23.0826 9.3V21H11.3826C11.1826 21.95 11.0826 22.95 11.0826 24C11.0826 25.05 11.1826 26.05 11.3826 27H23.0826V38.7C24.0326 38.9 25.0326 39 26.0826 39C27.1326 39 28.1326 38.9 29.0826 38.7V27H40.7826C40.9826 26.05 41.0826 25.05 41.0826 24C41.0826 22.95 40.9826 21.95 40.7826 21Z" fill="#ED4C5C"/>
<path d="M55.4539 26.5532L51.3613 22.1353C50.9283 21.5167 51.3709 20.6667 52.1259 20.6667H59.8741C60.6291 20.6667 61.0717 21.5167 60.6387 22.1353L56.5461 26.5532C56.2807 26.9323 55.7193 26.9323 55.4539 26.5532Z" fill="#C2C7C9"/>
<defs>
<filter id="filter0_d_65_817" x="0" y="0" width="52" height="52" filterUnits="userSpaceOnUse" color-interpolation-filters="sRGB">
<feFlood flood-opacity="0" result="BackgroundImageFix"/>
<feColorMatrix in="SourceAlpha" type="matrix" values="0 0 0 0 0 0 0 0 0 0 0 0 0 0 0 0 0 0 127 0" result="hardAlpha"/>
<feOffset dy="2"/>
<feGaussianBlur stdDeviation="4"/>
<feComposite in2="hardAlpha" operator="out"/>
<feColorMatrix type="matrix" values="0 0 0 0 0.160784 0 0 0 0 0.458824 0 0 0 0 0.607843 0 0 0 0.24 0"/>
<feBlend mode="normal" in2="BackgroundImageFix" result="effect1_dropShadow_65_817"/>
<feBlend mode="normal" in="SourceGraphic" in2="effect1_dropShadow_65_817" result="shape"/>
</filter>
</defs>
</svg>
