<svg width="160" height="40" viewBox="0 0 160 40" fill="none" xmlns="http://www.w3.org/2000/svg">
<g clip-path="url(#clip0_65_709)">
<path d="M32.5013 8.47131L31.4831 11.3762L30.4151 14.4425L30.4027 14.4177C31.8307 17.2481 32.2902 20.5751 31.421 23.8773C29.5335 31.0279 22.2195 35.2983 15.0669 33.4238C7.91436 31.5368 3.6427 24.2125 5.51776 17.0619C7.39283 9.91135 14.7192 5.64088 21.8718 7.52783C23.4737 7.94991 24.9017 8.6327 26.1807 9.53893L29.3596 8.93063L32.402 8.35958C30.055 5.6533 26.8885 3.59254 23.1632 2.61182C13.3036 0.0172615 3.19566 5.91399 0.612792 15.7708C-1.9825 25.6401 3.90347 35.7328 13.7755 38.3274C23.6351 40.9219 33.7306 35.0252 36.3259 25.1684C37.9278 19.0854 36.3011 12.9156 32.5013 8.47131Z" fill="#EC1C67"/>
<path fill-rule="evenodd" clip-rule="evenodd" d="M26.4666 22.5737C25.3117 26.9932 20.7793 29.625 16.371 28.4705C11.9504 27.3035 9.3054 22.7848 10.4727 18.3653C11.6275 13.9459 16.1599 11.3141 20.5682 12.4686C24.9889 13.6355 27.6338 18.1543 26.4666 22.5737ZM21.6982 21.3199C22.1701 19.5323 21.1022 17.7074 19.314 17.2356C17.5383 16.7763 15.7129 17.8315 15.241 19.6192C14.7692 21.4068 15.8371 23.2317 17.6252 23.7034C19.4009 24.1752 21.2263 23.1075 21.6982 21.3199Z" fill="#0CACA7"/>
<path d="M148.055 34.4666C147.866 34.4666 147.715 34.41 147.602 34.2968C147.489 34.1836 147.432 34.0326 147.432 33.8439V14.9927C147.432 14.804 147.489 14.653 147.602 14.5398C147.715 14.4266 147.866 14.37 148.055 14.37H148.536C148.725 14.37 148.876 14.4266 148.989 14.5398C149.102 14.653 149.159 14.804 149.159 14.9927V16.323C149.631 15.6814 150.244 15.1531 150.999 14.7379C151.772 14.3039 152.744 14.0869 153.914 14.0869C155.028 14.0869 155.962 14.2851 156.716 14.6813C157.471 15.0587 158.085 15.5682 158.556 16.2098C159.028 16.8514 159.377 17.5685 159.604 18.361C159.83 19.1535 159.953 19.965 159.972 20.7952C159.99 21.0783 160 21.3897 160 21.7293C160 22.069 159.99 22.3803 159.972 22.6634C159.953 23.4937 159.83 24.3051 159.604 25.0976C159.377 25.8902 159.028 26.6072 158.556 27.2488C158.085 27.8904 157.471 28.4093 156.716 28.8056C155.962 29.183 155.028 29.3717 153.914 29.3717C152.744 29.3717 151.772 29.1547 150.999 28.7207C150.244 28.2867 149.631 27.7583 149.159 27.1356V33.8439C149.159 34.0326 149.102 34.1836 148.989 34.2968C148.876 34.41 148.725 34.4666 148.536 34.4666H148.055ZM153.744 27.73C154.858 27.73 155.735 27.4847 156.377 26.9941C157.018 26.5035 157.481 25.8619 157.764 25.0693C158.047 24.2768 158.207 23.4276 158.245 22.5219C158.264 21.9935 158.264 21.4651 158.245 20.9368C158.207 20.031 158.047 19.1818 157.764 18.3893C157.481 17.5968 157.018 16.9552 156.377 16.4646C155.735 15.9739 154.858 15.7286 153.744 15.7286C152.669 15.7286 151.801 15.9834 151.14 16.4929C150.48 17.0023 149.989 17.6439 149.668 18.4176C149.367 19.1724 149.197 19.9367 149.159 20.7103C149.14 20.9934 149.131 21.3613 149.131 21.8142C149.131 22.2671 149.14 22.6351 149.159 22.9181C149.178 23.6729 149.348 24.4183 149.668 25.1542C150.008 25.8902 150.508 26.5035 151.169 26.9941C151.848 27.4847 152.707 27.73 153.744 27.73Z" fill="#3A4855"/>
<path d="M123.177 29.0887C122.988 29.0887 122.837 29.0321 122.724 28.9188C122.611 28.8056 122.554 28.6546 122.554 28.4659V14.9927C122.554 14.804 122.611 14.653 122.724 14.5398C122.837 14.4266 122.988 14.37 123.177 14.37H123.658C123.847 14.37 123.998 14.4266 124.111 14.5398C124.224 14.653 124.281 14.804 124.281 14.9927V15.9834C124.753 15.3795 125.309 14.9172 125.951 14.5964C126.611 14.2567 127.404 14.0869 128.329 14.0869C130.442 14.0869 131.952 14.9738 132.857 16.7476C133.291 15.9362 133.924 15.2946 134.754 14.8228C135.603 14.3322 136.575 14.0869 137.669 14.0869C138.669 14.0869 139.566 14.3228 140.358 14.7945C141.17 15.2474 141.802 15.9268 142.255 16.8325C142.726 17.7383 142.962 18.8705 142.962 20.2291V28.4659C142.962 28.6546 142.906 28.8056 142.793 28.9188C142.679 29.0321 142.528 29.0887 142.34 29.0887H141.858C141.67 29.0887 141.519 29.0321 141.406 28.9188C141.292 28.8056 141.236 28.6546 141.236 28.4659V20.5122C141.236 19.2668 141.056 18.3044 140.698 17.6251C140.339 16.9269 139.868 16.4362 139.283 16.1532C138.698 15.8701 138.066 15.7286 137.386 15.7286C136.82 15.7286 136.245 15.8701 135.66 16.1532C135.075 16.4362 134.584 16.9269 134.188 17.6251C133.81 18.3044 133.622 19.2668 133.622 20.5122V28.4659C133.622 28.6546 133.565 28.8056 133.452 28.9188C133.339 29.0321 133.188 29.0887 132.999 29.0887H132.518C132.329 29.0887 132.178 29.0321 132.065 28.9188C131.952 28.8056 131.895 28.6546 131.895 28.4659V20.5122C131.895 19.2668 131.706 18.3044 131.329 17.6251C130.952 16.9269 130.47 16.4362 129.885 16.1532C129.3 15.8701 128.687 15.7286 128.046 15.7286C127.479 15.7286 126.904 15.8701 126.319 16.1532C125.734 16.4362 125.243 16.9269 124.847 17.6251C124.47 18.3044 124.281 19.2573 124.281 20.4839V28.4659C124.281 28.6546 124.224 28.8056 124.111 28.9188C123.998 29.0321 123.847 29.0887 123.658 29.0887H123.177Z" fill="#3A4855"/>
<path d="M111.342 29.3717C110.436 29.3717 109.596 29.183 108.822 28.8056C108.068 28.4282 107.454 27.9282 106.983 27.3054C106.511 26.6639 106.275 25.9468 106.275 25.1542C106.275 23.8711 106.794 22.8427 107.832 22.069C108.87 21.2953 110.219 20.7952 111.879 20.5688L116.352 19.9461V18.9554C116.352 17.9553 116.04 17.1722 115.418 16.6061C114.814 16.0211 113.842 15.7286 112.502 15.7286C111.521 15.7286 110.728 15.9268 110.125 16.323C109.521 16.7004 109.106 17.2005 108.879 17.8232C108.785 18.1062 108.605 18.2478 108.341 18.2478H107.888C107.662 18.2478 107.502 18.1912 107.407 18.0779C107.313 17.9459 107.266 17.7949 107.266 17.6251C107.266 17.3609 107.36 17.0307 107.549 16.6344C107.756 16.2381 108.068 15.8513 108.483 15.4739C108.898 15.0776 109.436 14.7474 110.096 14.4832C110.757 14.219 111.559 14.0869 112.502 14.0869C113.616 14.0869 114.531 14.2379 115.248 14.5398C115.984 14.8417 116.55 15.238 116.946 15.7286C117.361 16.2004 117.654 16.7287 117.824 17.3137C117.993 17.8987 118.078 18.4742 118.078 19.0403V28.4659C118.078 28.6546 118.022 28.8056 117.908 28.9188C117.795 29.0321 117.644 29.0887 117.456 29.0887H116.974C116.786 29.0887 116.635 29.0321 116.522 28.9188C116.408 28.8056 116.352 28.6546 116.352 28.4659V27.1356C116.125 27.4753 115.804 27.8149 115.389 28.1546C114.974 28.4943 114.436 28.7867 113.776 29.0321C113.134 29.2585 112.323 29.3717 111.342 29.3717ZM111.625 27.73C112.493 27.73 113.285 27.5413 114.002 27.1639C114.719 26.7865 115.286 26.211 115.701 25.4373C116.135 24.6447 116.352 23.6541 116.352 22.4653V21.5029L112.7 22.0124C111.153 22.2199 109.983 22.5785 109.19 23.088C108.398 23.5975 108.002 24.239 108.002 25.0127C108.002 25.6354 108.181 26.1449 108.539 26.5412C108.898 26.9375 109.351 27.2394 109.898 27.447C110.464 27.6357 111.04 27.73 111.625 27.73Z" fill="#3A4855"/>
<path d="M96.0183 29.3717C94.3011 29.3717 92.8952 29.0415 91.8008 28.381C90.7252 27.7017 89.9232 26.7865 89.3948 25.6354C88.8665 24.4843 88.574 23.1728 88.5174 21.701C88.4985 20.9273 88.4891 20.097 88.4891 19.2101C88.4891 18.3232 88.4985 17.4741 88.5174 16.6627C88.574 15.1908 88.8665 13.8793 89.3948 12.7282C89.9232 11.5583 90.7252 10.6431 91.8008 9.98263C92.8952 9.32217 94.3011 8.99194 96.0183 8.99194C97.358 8.99194 98.4997 9.18064 99.4432 9.55805C100.387 9.93545 101.151 10.4355 101.736 11.0582C102.34 11.6621 102.783 12.3225 103.066 13.0396C103.368 13.7378 103.538 14.4265 103.576 15.1059C103.595 15.2757 103.538 15.4172 103.406 15.5304C103.293 15.6248 103.151 15.672 102.981 15.672H102.415C102.264 15.672 102.132 15.6342 102.019 15.5587C101.906 15.4644 101.83 15.304 101.793 15.0776C101.434 13.3981 100.755 12.247 99.7545 11.6243C98.7733 11.0016 97.5279 10.6903 96.0183 10.6903C94.3011 10.6903 92.933 11.1809 91.914 12.1621C90.9139 13.1245 90.3761 14.6719 90.3006 16.8042C90.244 18.3515 90.244 19.9366 90.3006 21.5594C90.3761 23.6918 90.9139 25.2486 91.914 26.2298C92.933 27.1922 94.3011 27.6734 96.0183 27.6734C97.5279 27.6734 98.7733 27.362 99.7545 26.7393C100.755 26.1166 101.434 24.9655 101.793 23.2861C101.83 23.0596 101.906 22.9087 102.019 22.8332C102.132 22.7388 102.264 22.6917 102.415 22.6917H102.981C103.151 22.6917 103.293 22.7483 103.406 22.8615C103.538 22.9558 103.595 23.0879 103.576 23.2578C103.538 23.9371 103.368 24.6353 103.066 25.3523C102.783 26.0505 102.34 26.711 101.736 27.3337C101.151 27.9376 100.387 28.4282 99.4432 28.8056C98.4997 29.183 97.358 29.3717 96.0183 29.3717Z" fill="#3A4855"/>
<path d="M67.8751 29.0888C67.6864 29.0888 67.526 29.0322 67.3939 28.9189C67.2807 28.8057 67.2241 28.6548 67.2241 28.4661V9.92617C67.2241 9.71859 67.2807 9.5582 67.3939 9.44498C67.526 9.33176 67.6864 9.27515 67.8751 9.27515H68.5827C68.7714 9.27515 68.9129 9.32232 69.0073 9.41667C69.1016 9.51102 69.1582 9.5865 69.1771 9.64311L75.6024 22.154L82.056 9.64311C82.0937 9.5865 82.1503 9.51102 82.2258 9.41667C82.3202 9.32232 82.4617 9.27515 82.6504 9.27515H83.3297C83.5373 9.27515 83.6977 9.33176 83.8109 9.44498C83.9241 9.5582 83.9807 9.71859 83.9807 9.92617V28.4661C83.9807 28.6548 83.9241 28.8057 83.8109 28.9189C83.6977 29.0322 83.5373 29.0888 83.3297 29.0888H82.8202C82.6315 29.0888 82.4806 29.0322 82.3673 28.9189C82.2541 28.8057 82.1975 28.6548 82.1975 28.4661V13.1247L76.7912 23.7674C76.7157 23.9561 76.6025 24.0976 76.4516 24.192C76.3195 24.2863 76.1402 24.3335 75.9138 24.3335H75.291C75.0646 24.3335 74.8853 24.2863 74.7532 24.192C74.6211 24.0976 74.5079 23.9561 74.4136 23.7674L69.0073 13.1247V28.4661C69.0073 28.6548 68.9507 28.8057 68.8375 28.9189C68.7242 29.0322 68.5733 29.0888 68.3846 29.0888H67.8751Z" fill="#3A4855"/>
<path d="M50.0731 29.0888C49.8844 29.0888 49.7334 29.0322 49.6202 28.9189C49.507 28.8057 49.4504 28.6548 49.4504 28.4661V9.92617C49.4504 9.71859 49.507 9.5582 49.6202 9.44498C49.7334 9.33176 49.8844 9.27515 50.0731 9.27515H56.9513C58.2722 9.27515 59.4138 9.50159 60.3762 9.95447C61.3574 10.3885 62.1122 11.0395 62.6406 11.9075C63.1878 12.7756 63.4614 13.8512 63.4614 15.1343C63.4614 16.4175 63.1878 17.4931 62.6406 18.3611C62.1122 19.2291 61.3574 19.8896 60.3762 20.3425C59.4138 20.7765 58.2722 20.9935 56.9513 20.9935H51.2336V28.4661C51.2336 28.6548 51.177 28.8057 51.0638 28.9189C50.9506 29.0322 50.7902 29.0888 50.5826 29.0888H50.0731ZM51.2336 19.2952H56.8097C58.4514 19.2952 59.6686 18.9367 60.4611 18.2196C61.2725 17.5025 61.6782 16.4741 61.6782 15.1343C61.6782 13.7945 61.2725 12.7661 60.4611 12.0491C59.6686 11.332 58.4514 10.9735 56.8097 10.9735H51.2336V19.2952Z" fill="#3A4855"/>
</g>
<defs>
<clipPath id="clip0_65_709">
<rect width="160" height="40" fill="white"/>
</clipPath>
</defs>
</svg>
