<svg width="160" height="40" viewBox="0 0 160 40" fill="none" xmlns="http://www.w3.org/2000/svg">
<path d="M133.071 34.5613V6H144.699C147.746 6 150.412 6.61203 152.696 7.83608C155.009 9.03294 156.804 10.7058 158.082 12.8547C159.361 15.0036 160 17.4789 160 20.2806C160 23.0824 159.361 25.5577 158.082 27.7066C156.804 29.8555 155.009 31.5419 152.696 32.766C150.412 33.9628 147.746 34.5613 144.699 34.5613H133.071ZM136.09 31.95H144.536C147.066 31.95 149.255 31.4603 151.105 30.4811C152.982 29.4746 154.437 28.101 155.471 26.3601C156.505 24.592 157.021 22.5655 157.021 20.2806C157.021 17.9685 156.505 15.942 155.471 14.2012C154.437 12.4603 152.982 11.1002 151.105 10.121C149.255 9.11454 147.066 8.61132 144.536 8.61132H136.09V31.95Z" fill="#182D41"/>
<path d="M109.044 34.5613V6H112.063V31.95H128.058V34.5613H109.044Z" fill="#182D41"/>
<path d="M96.7317 34.5613V6H99.751V34.5613H96.7317Z" fill="#182D41"/>
<path d="M75.923 34.8061C72.2781 34.8061 69.4083 33.7588 67.3138 31.6643C65.2193 29.5698 64.1721 26.4689 64.1721 22.3615V6H67.1914V22.2391C67.1914 25.6121 67.9531 28.101 69.4763 29.7059C70.9996 31.3107 73.1485 32.1132 75.923 32.1132C78.7248 32.1132 80.8872 31.3107 82.4105 29.7059C83.9338 28.101 84.6954 25.6121 84.6954 22.2391V6H87.6332V22.3615C87.6332 26.4689 86.5859 29.5698 84.4914 31.6643C82.4241 33.7588 79.568 34.8061 75.923 34.8061Z" fill="#182D41"/>
<path d="M33.6562 34.5613V6H45.9783C49.1609 6 51.6226 6.63923 53.3635 7.91768C55.1315 9.19614 56.0156 11.005 56.0156 13.3443C56.0156 14.8948 55.6484 16.2005 54.9139 17.2613C54.2067 18.3221 53.2275 19.1246 51.9762 19.6686C50.7521 20.2126 49.4057 20.4846 47.9368 20.4846L48.6305 19.5054C50.4529 19.5054 52.017 19.791 53.3227 20.3622C54.6555 20.9063 55.6892 21.7359 56.4236 22.8511C57.158 23.9392 57.5252 25.2993 57.5252 26.9313C57.5252 29.3522 56.6276 31.2291 54.8323 32.562C53.0643 33.8948 50.3849 34.5613 46.7944 34.5613H33.6562ZM36.6755 32.0724H46.7536C49.2561 32.0724 51.1738 31.6507 52.5066 30.8075C53.8395 29.9371 54.5059 28.5634 54.5059 26.6865C54.5059 24.8368 53.8395 23.4904 52.5066 22.6471C51.1738 21.7767 49.2561 21.3415 46.7536 21.3415H36.3491V18.8526H45.7743C48.0592 18.8526 49.8273 18.4174 51.0786 17.5469C52.357 16.6765 52.9962 15.3844 52.9962 13.6707C52.9962 11.9299 52.357 10.6378 51.0786 9.79457C49.8273 8.92413 48.0592 8.48891 45.7743 8.48891H36.6755V32.0724Z" fill="#182D41"/>
<path d="M0 34.5613L12.2813 17.6285V22.4431L0.530424 6H8.03796L16.1575 17.4653L13.0158 17.5061L21.0129 6H28.1941L16.5247 22.1575V17.4245L28.8877 34.5613H21.2577L12.8526 22.4431H15.8719L7.58914 34.5613H0Z" fill="#182D41"/>
</svg>
