<svg width="32" height="32" viewBox="0 0 32 32" fill="none" xmlns="http://www.w3.org/2000/svg">
<g clip-path="url(#clip0_1_7438)">
<path opacity="0.05" d="M18.9345 31.7078C26.2552 30.2879 31.7829 23.8442 31.7829 16.1085L24.7202 9.04565L16.1948 15.8052L16.2043 15.8147L7.85541 20.6042L18.9345 31.7078Z" fill="black" fill-opacity="0.1"/>
<path d="M24.7201 9.04565H15.8915V23.195H24.7201V9.04565Z" fill="#FFD15D"/>
<path d="M24.7201 21.4058H15.8915V23.1715H24.7201V21.4058Z" fill="#F9B54C"/>
<path d="M24.7201 19.6399H15.8915V21.4056H24.7201V19.6399Z" fill="#FFD15D"/>
<path d="M24.7201 17.8743H15.8915V19.64H24.7201V17.8743Z" fill="#F9B54C"/>
<path d="M24.7201 16.1084H15.8915V17.8741H24.7201V16.1084Z" fill="#FFD15D"/>
<path d="M24.7201 14.3428H15.8915V16.1085H24.7201V14.3428Z" fill="#F9B54C"/>
<path d="M24.7201 12.5771H15.8915V14.3428H24.7201V12.5771Z" fill="#FFD15D"/>
<path d="M24.7201 10.8113H15.8915V12.577H24.7201V10.8113Z" fill="#F9B54C"/>
<path d="M24.7201 9.04565H15.8915V10.8113H24.7201V9.04565Z" fill="#FFD15D"/>
<path d="M24.7201 21.4058H20.1902V23.1715H24.7201V21.4058Z" fill="#F4A200"/>
<path d="M24.7201 19.6399H20.1902V21.4056H24.7201V19.6399Z" fill="#F9B54C"/>
<path d="M24.7201 17.8743H20.1902V19.64H24.7201V17.8743Z" fill="#F4A200"/>
<path d="M24.7201 16.1084H20.1902V17.8741H24.7201V16.1084Z" fill="#F9B54C"/>
<path d="M24.7201 14.3428H20.1902V16.1085H24.7201V14.3428Z" fill="#F4A200"/>
<path d="M24.7201 12.5771H20.1902V14.3428H24.7201V12.5771Z" fill="#F9B54C"/>
<path d="M24.7201 10.8113H20.1902V12.577H24.7201V10.8113Z" fill="#F4A200"/>
<path d="M24.7201 9.04565H20.1902V10.8113H24.7201V9.04565Z" fill="#F9B54C"/>
<path d="M12.36 21.4055C15.2855 21.4055 17.6571 19.0339 17.6571 16.1084C17.6571 13.1829 15.2855 10.8113 12.36 10.8113C9.43447 10.8113 7.06287 13.1829 7.06287 16.1084C7.06287 19.0339 9.43447 21.4055 12.36 21.4055Z" fill="#FFD15D"/>
<path d="M17.6573 16.1085C17.6573 13.1889 15.2953 10.8215 12.3781 10.8118V21.4052C15.2952 21.3955 17.6573 19.028 17.6573 16.1085Z" fill="#F9B54C"/>
<path d="M12.3601 22.4757C8.8491 22.4757 5.9928 19.6195 5.9928 16.1085C5.9928 12.5975 8.8491 9.74121 12.3601 9.74121C15.871 9.74121 18.7274 12.5975 18.7274 16.1085C18.7274 19.6195 15.871 22.4757 12.3601 22.4757ZM12.3601 11.8815C10.0294 11.8815 8.13312 13.7778 8.13312 16.1085C8.13312 18.4392 10.0294 20.3355 12.3601 20.3355C14.6908 20.3355 16.5871 18.4392 16.5871 16.1085C16.5871 13.7778 14.6909 11.8815 12.3601 11.8815Z" fill="#F4A200"/>
<path d="M18.7274 16.1086C18.7274 12.6036 15.8808 9.75145 12.378 9.7417V11.882C14.7005 11.8917 16.5871 13.7838 16.5871 16.1085C16.5871 18.4333 14.7005 20.3254 12.378 20.3351V22.4754C15.8807 22.4657 18.7274 19.6136 18.7274 16.1086Z" fill="#D68900"/>
<path d="M13.3231 13.7007H11.3969V18.5163H13.3231V13.7007Z" fill="#F4A200"/>
<path d="M13.3235 13.7007H12.3782V18.5163H13.3235V13.7007Z" fill="#D68900"/>
</g>
<defs>
<clipPath id="clip0_1_7438">
<rect width="31.7829" height="31.7829" fill="white" transform="translate(0 0.217041)"/>
</clipPath>
</defs>
</svg>
