<svg width="32" height="32" viewBox="0 0 32 32" fill="none" xmlns="http://www.w3.org/2000/svg">
<path d="M16 2.66675C12.5067 2.66675 9.66666 5.50675 9.66666 9.00008C9.66666 12.4267 12.3467 15.2001 15.84 15.3201C15.9467 15.3067 16.0533 15.3067 16.1333 15.3201C16.16 15.3201 16.1733 15.3201 16.2 15.3201C16.2133 15.3201 16.2133 15.3201 16.2267 15.3201C19.64 15.2001 22.32 12.4267 22.3333 9.00008C22.3333 5.50675 19.4933 2.66675 16 2.66675Z" fill="white"/>
<path d="M22.7733 18.8666C19.0533 16.3866 12.9867 16.3866 9.24001 18.8666C7.54668 19.9999 6.61334 21.5333 6.61334 23.1733C6.61334 24.8133 7.54668 26.3333 9.22668 27.4533C11.0933 28.7066 13.5467 29.3333 16 29.3333C18.4533 29.3333 20.9067 28.7066 22.7733 27.4533C24.4533 26.3199 25.3867 24.7999 25.3867 23.1466C25.3733 21.5066 24.4533 19.9866 22.7733 18.8666Z" fill="white"/>
</svg>
